# xmcd
#
# Track frame offsets:
#	150
#	14485
#	32900
#	57165
#	71867
#	89537
#	110575
#	135975
#	157350
#	176287
#	194915
#	219487
#	243710
#	260390
#
# Disc length: 3706 seconds
#
# Revision: 11
# Processed by: cddbd v1.5.2PL0 Copyright (c) Steve Scherf et al.
# Submitted via: audiograbber 1.83.01
#
DISCID=d70e780e
DTITLE=Tarkan - Tarkan
DYEAR=1998
DGENRE=Pop
TTITLE0=Simarik
TTITLE1=Ölürüm Sana
TTITLE2=Kir Zincirlerini
TTITLE3=Sikidim (Hepsi Senin Mi?)
TTITLE4=Salina Salina Sinsice
TTITLE5=Ikimizin Yerine
TTITLE6=Inci Tanem
TTITLE7=Dön Bebegim
TTITLE8=Basina Bela Olurum
TTITLE9=Gül Döktüm Yollarina
TTITLE10=Unut Beni
TTITLE11=Beni Anlama
TTITLE12=Delikanli Çaglarim
TTITLE13=Simarik (Long Version)
EXTD=
EXTT0=
EXTT1=
EXTT2=
EXTT3=
EXTT4=
EXTT5=
EXTT6=
EXTT7=
EXTT8=
EXTT9=
EXTT10=
EXTT11=
EXTT12=
EXTT13=
PLAYORDER=
